<?xml version="1.0" encoding="utf-8"?>
<!-- Generator: Adobe Illustrator 28.0.0, SVG Export Plug-In . SVG Version: 6.00 Build 0)  -->
<svg version="1.1" id="npc" xmlns="http://www.w3.org/2000/svg" xmlns:xlink="http://www.w3.org/1999/xlink" x="0px" y="0px"
	 viewBox="0 0 596 709" style="enable-background:new 0 0 596 709;" xml:space="preserve">
<g>
	<path d="M566.2,684.5c-2.1-0.7-4.1-1.5-6-2.1c-3.9-1.4-7.4-2.6-10.9-3.9l0,0c-2.4-0.8-4.7-1.2-7-1.6c-3-0.5-5.8-1-8.4-2.4
		c-3.4-2-7.3-2.7-11-3.3c-0.6-1.6-2.1-2.6-3.8-2.6c-0.8,0-1.5,0-2.2,0c-1.3,0-2.4,0-3.4,0c-0.2-0.1-0.6-0.3-0.8-0.4
		c-0.3-0.1-0.6-0.3-0.9-0.4c-0.2-0.1-0.5-0.3-0.9-0.5c-1.1-0.7-2.6-1.5-4.5-1.6c-6.3-0.1-12.6-0.1-18.8-0.1c-2.1,0-4.1,0-6.2,0h-7.7
		c-6.5,0-13.1,0-19.7,0c-1.1,0-2.3-0.1-3.5-0.2c-1.8-0.1-3.6-0.3-5.6-0.2c-4.5,0.2-8-0.3-11.3-1.8c-4.3-1.9-8.9-3.7-13.5-3.7
		c-0.1,0-0.1,0-0.2,0c-3.6,0-5.7-0.7-7.4-2.5c0-0.2-0.1-0.6-0.1-0.8c-0.1-0.6-0.2-1.4-0.3-2.2c-0.2-1.1-0.9-2-1.8-2.6
		c-0.5-0.8-1.1-3.5-0.7-6.9h3.2c0,0,5.7-0.2,6.1-0.8c1.4-0.4,2.8-0.8,4.2-1.2c0.8-0.2,1.8-0.2,2.9-0.3c2.7-0.1,6.6-0.2,9.7-3.3
		c0.2,0,9-4.1,8.7-5c0-0.1,0.1-0.1,0.1-0.2c2.4-0.8,4.5-2,6.4-3.1c4.1-2.3,6.5-1,9.9-2.3c1.4-0.5,5.1-5.2,5.1-5.2
		c0.2-0.3,0.4-0.5,0.6-0.8c1.2-1.6,2.4-3.2,3.4-5.2l0.2-0.5c1.8-3.7,3.4-6.9,6.4-9.2c2.1-1.6,3.5-3.7,4.8-5.5
		c1.5-2.3,2.5-3.7,4.1-4.4c0.7-0.3,1.5-0.8,2-1.8c0.3-0.3,0.7-0.5,1-0.8c1.2-0.9,2.3-1.8,3.5-2.8c1.1-0.9,1.7-2.1,2.3-2.9l0.2-0.3
		c0.4-0.7,0.8-1.5,1-2.1c0.1-0.3,0.3-0.8,0.5-1.1c2.2-1.3,4.7-3.8,4.4-8.6c0-0.5-0.1-1.1-0.1-1.6c-0.2-3.9-0.4-7.3,1-10.7
		c1.5-3.6,1.5-7.4,1.6-10.7c0-0.7,0-1.4,0.1-2.1l0,0c0.7-0.7,1.4-1.4,2-2c0.5-0.5,0.9-1,1.4-1.4c0.6-0.6,1.2-1.3,1.8-1.9
		c0.5-0.5,1.1-1,1.7-1.5c2.3-1.9,5.9-4.8,5.8-10.7c0-2.1,1.1-4.8,2.2-7.3c0.3-0.7,0.6-1.4,0.8-2c0.2-0.2,0.6-0.4,0.9-0.6
		c3.2-1.2,7.4-3.5,6.7-10c-0.2-2.1,0.5-4,2.6-6.7c2.9-3.7,5.5-7.6,7.8-11.1c1.4-2.1,1-4.8,0.9-5.5c-0.3-1.4,0.3-2.4,1.9-4.6
		c0.1-0.1,0.2-0.2,0.2-0.3c1.8-0.1,3.3-1.4,3.7-3.2c0.2-1,0.3-1.9,0.4-2.8c0.1-0.8,0.2-2,0.4-2.3c2.6-3.5,2.7-6.5,2.6-9.6
		c-0.3-7.4-0.2-15-0.1-22.4c0.1-3.5,0.1-7.1,0.1-10.6c0-2.9,0-6.7-0.5-10.6c-0.3-2.1-0.7-4.1-1.2-6c-0.2-1-0.5-2-0.7-3
		c-0.1-0.4-0.1-0.7-0.2-1.1c-0.3-2-0.7-4.7-3.6-7.3c-4-3.6-6.5-6.9-5.8-11.5c0.3-2.3,0.3-4.5,0.2-6.7c0-1-0.1-2-0.1-3
		c0-0.7,0-1.4-0.1-2.1c0-0.8-0.1-1.9,0-2.2c2.6-4.9,3.3-9.8,3.6-14.7c1.4-0.6,2.3-2,2.3-3.6v-7c0-1.2-0.5-2.3-1.5-3.1
		c-0.7-0.5-1.2-0.9-1.7-1.2c-0.1-0.1-0.1-0.1-0.2-0.1c-0.5-1.3-0.8-2.7-1-4c-0.3-1.6-0.3-3.4-0.4-5.3v-0.7c0-1.2,0-2.5-0.1-3.7
		c0-1.9,0-3.9-0.1-5.9c-0.2-3.2-0.9-6.1-1.6-8.9c-0.8-3.4-1.6-6.6-1.4-9.8c0.2-3-1.6-5.6-3.3-7.8c-0.9-1.1-1.9-2.1-2.8-2.9
		c-0.8-0.7-1.6-1.4-1.9-2c-0.9-1.5-1.9-3-2.9-4.3c-3-4.1-4.8-6.8-3.9-10.8c0.5-2.3,0.1-4.6-0.2-6.5c-0.1-0.5-0.2-0.9-0.2-1.4
		c-0.2-1.4-0.5-2.7-0.8-4c-0.5-2.3-1-4.4-0.9-6.4c0.2-5.2-1.3-9.5-2.9-13.1c-0.1-0.2-0.2-0.6-0.3-1c-0.2-0.8-0.4-1.7-0.9-2.7
		c0-0.2,0-0.5,0-0.7c0.1-1.6,0.2-6-4.6-7.9c-0.2-0.2-0.6-0.9-1.1-2s-0.8-2.4-1.1-3.7c-0.2-1-0.5-2-0.8-3.1c-0.2-0.5-0.3-1-0.5-1.6
		c-0.6-2-1.2-4.3-2.6-6.3c-1-1.5-2.3-2.8-3.4-3.9c-2.1-2.1-3.1-3.2-3.1-5.1c0-2.1-1.5-3.3-2-3.7c-0.5-0.5-1.1-1-1.6-1.4
		c-1-0.9-2-1.8-2.7-2.7c-0.2-0.3-0.5-1.1-0.7-1.8c-0.2-0.6-0.4-1.3-0.7-2.1c-0.5-1.3-1.6-2.2-3-2.5c-0.9-0.2-2.4-1.1-3.6-2.2
		c0-0.3,0-0.7-0.1-1c0-0.1,0-0.3-0.1-0.4c-0.4-3.4-2.7-4-3.7-4.1c-2.3-0.3-4.2-1.3-5.9-3.3c-1.1-1.3-2.5-2-3.6-2.6
		c-0.2-0.1-0.6-0.3-0.8-0.5c-1.7-4.3-5.1-5.4-7.4-6.1l-0.3-0.1c-0.1,0-0.2-0.2-0.3-0.2c-0.3-0.4-0.6-0.7-0.9-1.1
		c-2.2-2.8-5-6.2-10.2-7.3c-1.2-0.2-2.5-1-2.9-1.5c-1.7-4.3-4.6-5.9-7.1-7.3c-0.5-0.3-0.9-0.5-1.4-0.8c-4.6-2.8-8.7-6.4-13-10.2
		c-1.8-1.6-3.7-3.3-5.7-4.9l-0.2-0.2c-1-0.9-2.8-2.3-5.1-2c-1.8,0.2-3.5-0.3-5.7-3.7c-2.6-4-5.9-4.6-9-4.5c-1-1.7-2.8-3-6.2-2.9
		c-0.2,0-0.4,0-0.6,0c-3.2-0.2-5.6-0.6-8-1.9c-0.6-0.3-1.1-0.6-1.7-0.9c-3.5-1.9-7.6-4.1-12.9-4c-3.4,0.1-6.9-0.6-10.7-1.3
		c-1.3-0.2-2.6-0.5-3.9-0.7c-0.3-0.5-0.6-1-1.1-1.4l0.1,0.1c-0.3-0.3-1.2-1.1-2.6-1.4c-0.8-0.1-1.8-0.3-2.8-0.2
		c-6,0.6-10.6-0.1-14.6-2c-0.9-0.4-1.8-0.7-2.9-0.8c-0.7-0.9-1.9-1.5-3.1-1.5c-11.9,0-23.9,0-35.8,0c-0.5,0-1.1,0-1.6,0.2l-4.7,0.9
		c-0.4,0.1-0.9,0.3-1.3,0.5c-0.5,0.3-1,0.6-1.4,0.9c-0.3,0.2-0.7,0.5-1,0.6c-1.3,0.2-2.6,0.3-4,0.3c-1-1.3-2.8-1.9-4.4-1.3
		c-0.6,0.2-1.2,0.5-1.8,0.7c-0.8,0.3-1.6,0.7-2.1,0.7c-4.3,0.2-8.6,0.3-12.8,0.5c-3.4,0.1-6.9,0.2-10.4,0.3c-1.6,0.1-3,0.6-4.1,1
		c-0.3,0.1-0.7,0.2-1,0.3c-0.8,0.2-1.5,0.5-2.1,0.8c-0.9,0.4-1.9,0.7-2.5,0.8c-6.6,0.2-12.3,2.1-17.3,5.8c-4.2,3.1-7.8,5.5-12.1,6
		c-1.6,0.2-2.7,1.2-3.3,1.7c-0.1,0.1-0.1,0.1-0.1,0.1c-0.5,0.3-1,0.6-1.4,0.9c-1.9,1.1-4.3,2.5-5.9,5.2c-0.1,0-0.2,0-0.3,0.1
		c-1.8,0.5-3.7,1-5.5,1.5c-2.2,0.6-4.4,1.2-6.6,1.8c-0.4,0.1-0.8,0.2-1.2,0.3c-1.7,0.5-3.6,1-5.4,1.9c-2.3,1.1-4.5,2.3-6.6,3.4
		c-3.7,2-7.3,3.9-11,5.4c-6,2.4-10.8,5.9-14.4,11c-0.3,0.4-0.7,0.8-1.2,1.3c-1.2,1.2-2.7,2.7-3.3,4.8l-0.2,0.8
		c-0.9,3.2-1.4,4.9-2,5.8c-0.6,0.8-1.7,1.7-4.4,3.5c-1.2,0.8-2,2.1-2.3,3.6c-0.1,0.3-0.4,0.6-1.5,1.4c-1,0.7-2.2,1.6-3.1,2.9
		c-0.6,0.8-1.3,1.6-2.1,2.5c-2.8,3.1-6.6,7.3-5.3,14.5c0.5,2.7-0.3,6.1-1.2,9.5c-0.2,0.9-0.4,1.8-0.6,2.8c-0.5,2.2-1.4,4.4-2.3,6.8
		c-0.2,0.5-0.4,0.9-0.6,1.4c-6.1,2.2-7,6.4-6.5,9.9c-0.1,0.1-0.2,0.3-0.2,0.4c-0.2,0.4-0.4,0.8-0.6,1.3c-0.1,0.4-0.4,0.8-0.6,1.2
		c-0.6,1.2-1.3,2.7-1.5,4.4c-0.4,3-0.7,6.1-1,9.2c-1,0.6-1.7,1.7-1.8,3c-0.3,3.2-0.4,6.4-0.4,9.5c0,1.3,0,2.7-0.1,4
		c-0.1,0.2-0.3,0.5-0.4,0.7c-0.2,0.4-0.5,0.9-0.7,1.5c-0.4,1-0.5,2.1-0.1,3.1v0.1c-0.3,0.4-0.7,0.9-1.1,1.3
		c-2.5,3.2-5.4,6.7-6.1,12.3c-0.1,1.1,0.2,2.2,0.9,3c-0.1,0.8,0,1.6,0.4,2.3v8.4c0,0.1,0,0.1,0,0.2c0,0.5,0.1,0.9,0.1,1.4
		c0.1,0.9,0.1,1.8,0,2.3c-0.3,1.4-0.8,2.8-1.2,4.3c-0.4,1.1-0.7,2.3-1.1,3.5c-0.4,1.7,0.2,3,0.6,3.7c0.1,0.7,0.3,1.4,0.4,2
		c0.1,0.5,0.3,1.4,0.4,1.9c-2,2.8-2.4,5.6-1.4,8.2c-0.5,0.7-0.7,1.6-0.7,2.5c0.1,1.3,0.2,2.5,0.2,3.7c0.2,2.9,0.4,5.6,0.5,8.4
		c0,0.7,0.1,1.4,0.1,2.1c0.1,2.2,0.3,4.2,0,6.1c-0.4,2.7,0.1,5.2,0.5,7.3c0.6,2.8,0.8,4.3-0.1,5.8c-1.2,1.9-0.6,4.4,0.5,5.7
		c0.3,0.3,0.3,0.9,0.2,2.4c0,0.4-0.1,0.9-0.1,1.3c0,0.3,0,0.6,0,0.9c-0.1,2.4-0.3,5.8,2.7,7.1c0.8,0.3,0.9,0.6,1.4,2.8
		c0.3,1.7,0.8,3.8,2.3,5.6c0.5,0.5,1,0.9,1.7,1.1c0.1,0.4,0.2,0.9,0.2,1.2c0.1,1.3,0.1,2.6,0.1,4c0,0.6,0,1.3,0,1.9
		c0,1.8,1.2,3.4,3,3.9c0.3,1.6,0.7,3.3,1.1,5c0.3,1.1,0.7,2.1,1,3s0.6,1.7,0.8,2.4c0.1,0.6,0.1,1.6,0.1,2.5c0,2.4,0,5.4,2.1,7.5
		c1.2,1.2,1.7,3,2.4,5.1c0.8,2.6,1.8,5.8,4.3,8.3c0.3,4,2.9,6.6,4.8,8.4c1.6,1.6,2.4,2.4,2.4,3.3c0,1,0.5,2,1.2,2.8
		c3.3,3.3,5.5,7.5,7.8,11.9c1.4,2.6,2.8,5.4,4.5,8c0,0.1,0,0.2-0.1,0.3c-0.3,1.6,0.3,3.2,1.7,4.1c1.2,0.8,1.3,1.5,1,5
		c-0.2,1.6-0.3,3.4,0,5.3c0.3,1.6,1.5,2.9,3,3.2c0.1,19.2,0.1,38.7,0,57.6v8.9c0,0.2,0,0.4,0,0.7c-1.5,0.4-2.6,1.7-2.8,3.2
		c-0.1,0.7-0.2,1.4-0.3,2c-0.2,1.3-0.3,2.5-0.6,3.6c-1,3.5-2.1,6.8-3.3,9.9c-0.4,0.9-0.5,1.8-0.6,2.5c-1.3,0.6-2.3,1.8-2.4,3.6
		c-0.2,0.5-0.4,1-0.7,1.5l-0.4,0.8c-0.1,0.1-0.1,0.2-0.1,0.4c-0.4,1.3-0.3,2.5-0.2,3.4c0,0.3,0.1,0.7,0.1,0.9
		c-0.2,2.1-0.4,4.1-0.7,6.3c-0.2,1.3-0.3,2.7-0.5,4c-0.1,1,0.2,1.9,0.5,2.5c0,0.2,0,0.3,0,0.5c0,0.2,0,0.4,0,0.6
		c-2.9,2.5-4.7,5.8-5.7,10.1c0,0.1-0.1,0.2-0.1,0.3c-1.8-0.3-3.6,0.6-4.4,2.4c-0.9,2.2-1.6,4.4-2.2,6.5c-1.1,3.8-2.2,7.4-4.7,10.4
		c-0.7,0.8-1,1.9-1,3c-1.7,1.7-3.2,3.4-5,4.7c-0.3,0.3-0.8,0.5-1.2,0.8c-1.7,1-4.5,2.7-5.3,6.5c-0.3,0.2-0.7,0.5-1,0.7l-0.3,0.2
		c-0.7,0.5-1.6,0.9-2.5,1.3c-2.4,1.2-5.4,2.6-7.6,5.9c-3,4.5-6.2,3.8-7.3,3.6c-1.9-0.4-3.8-0.3-5-0.2c-0.3,0-0.5,0-0.6,0
		c-1.2,0-2.3,0.5-3,1.4c-0.5,0.6-0.9,1.1-1.2,1.5l0,0c-0.9,0.1-1.8,0.1-2.6,0c-1.1-0.1-4.3-0.2-6.2,2.3c-0.2,0.3-0.4,0.6-0.5,0.9
		c-0.2,0-0.4,0-0.7,0c-3.1,0-7.2,0-10.8,3.7c-0.3,0.1-0.8,0.2-1.1,0.3c-1.3,0.3-2.9,0.7-4.4,1.8c-0.3,0.2-1.2,0.5-1.8,0.6
		c-1.8,0.5-5.2,1.4-6.8,4.7l-4,0.4c-1.6,0.2-3,1.3-3.4,2.8c-0.5,1.5,0,3.2,1.3,4.2c0.2,0.2,0.5,0.5,0.8,0.8c1.1,1.1,2.5,2.6,4.8,2.7
		c3.2,0.2,6.3-0.1,8.9-0.9c1.8-0.6,3.5-1.4,5-2.1c1.2-0.6,2.3-1.2,3.4-1.5c0.8-0.3,1.8-0.3,3-0.4c2.4-0.1,5.3-0.2,8.3-2.1
		c1.1-0.7,3.1-0.9,5.1-1.1c1.1-0.1,2.2-0.2,3.2-0.4c0.9-0.2,1.8-0.7,2.3-1.4c0.3-0.3,0.5-0.7,0.8-1c1.5-1.9,1.8-2.1,2.6-2.1
		c6.7-0.1,29.9-13.7,29.2-14c0.9-0.6,1.8-1.1,2.7-1.6c0.9-0.6,1.7-1.3,2.5-2.3c0.5-0.7,1-1.4,1.5-2.1c0.8-1.1,1.5-2.1,2.3-2.9
		c1.9-1.9,3.9-3.7,5.7-5.3c0.8-0.7,1.5-1.3,2.1-1.9c0.5-0.5,0.9-1.1,1.1-1.8c0.3-0.8,0.5-1.6,0.7-2.4c0.4-1.4,0.7-2.6,1.2-3.6
		c0.1-0.2,0.6-0.7,1-1.1c0.7-0.7,1.6-1.6,2.2-2.8c1.8-3.3,3.6-7,5.2-10.8c0.6-1.3,0.9-2.6,1.2-3.8c0.2-0.8,0.4-1.5,0.6-2.1
		c0.1-0.2,0.6-0.8,0.9-1.2c0.3-0.4,0.9-0.9,1.4-1.4c1.6-1.4,3.6-3.2,4.1-5.8c1.2-6.3,2.1-13.2,2.8-21.8c0.3-3.6,0.8-6.5,2.5-9.2
		c0.5-0.8,1-1.6,1.6-2.4c0.7-1,1.4-2,2-3.1c2-3.5,2.7-7.6,3.3-11.3l0.1-0.7c0.3-1.9,0.1-3.7-0.1-5.3c-0.1-0.7-0.2-1.4-0.2-2.1
		c-0.1-3.4-0.2-7.1-0.2-10.8c0-1.3,0.1-2.5,0.2-3.9c0.1-1.2,0.2-2.4,0.2-3.6c0.1-2.6,0.1-5.3,0.1-7.9v-1.5c0-1.3,0-2.5,0-3.8
		c0-1.1,0-2.2,0-3.2c0-1.1,0-2.2,0-3.3c0-2,0-4,0-6c0-1.6-0.1-3.2-0.2-4.8c-0.1-1-0.1-2-0.2-2.9c0-1-0.1-2.1-0.1-3.1
		c0-1.4-0.1-2.9-0.2-4.3c-0.1-1-0.1-2-0.1-3.1c0-2.9-0.1-5.9-1-9c-0.6-1.9-1.4-3.5-2.2-5.2c-1.3-2.8-2.5-5.3-2.3-8
		c0.2-2.3-1.4-3.8-2.2-4.5c-0.1-0.1-0.2-0.2-0.3-0.3c-0.2-0.2-0.4-0.4-0.5-0.6c-0.1-0.1-0.3-0.3-0.4-0.5c0.6-1.3,0.4-2.8-0.4-4
		l-2.8-3.9c-0.2-0.3-0.5-0.7-0.8-1.2c-0.8-1.3-1.8-2.9-3.5-4.1c-1.6-1.1-2.3-2.8-3.4-5.5c-0.9-2.5-2-5.3-4.3-7.6
		c-0.6-0.6-1.1-1.4-1.7-2.3c-0.4-0.7-0.9-1.4-1.4-2.1c-0.5-0.6-1-1.1-1.4-1.5c-0.1-0.1-0.2-0.2-0.3-0.3c-0.6-2.2-1.2-4.5-1.8-6.7
		c-1.1-4.1-2.2-8.3-3.7-12.4c-0.2-0.4-0.3-1.1-0.4-1.9c-0.3-2.4-0.9-6.5-5.2-8.6l0,0c-0.2-1.1-0.2-2.3-0.3-3.6
		c-0.1-1.6-0.2-3.3-0.5-5c-0.5-2.6-1.6-5.1-3.1-6.9c-2.5-3.1-3.1-7.1-3.3-12.2c-0.1-2.9-0.7-5.4-1.2-7.8c-0.2-0.7-0.3-1.3-0.4-2
		c-0.4-1.7-0.9-3.4-1.4-5c-0.9-2.8-1.7-5.5-1.4-7.7c0.4-3.4,0.4-6.6,0.3-9.7c0-1.6-0.1-3.1,0-4.6c0-0.8,0-1.7,0.2-2.4
		c0.5-3.1,0.9-6.3,1.4-9.4l0.8-5l0,0c3.1-2.8,2.8-6.7,2.6-9c-0.1-0.6-0.1-1.3-0.1-1.7c0.5-5.4,0.4-10.8,0.3-16c0-1,0-2.1,0-3.1
		c0.2-0.2,0.4-0.5,0.6-0.8c0.1-0.2,0.3-0.4,0.4-0.6c0.5-0.8,1.2-1.8,1.5-3.1c0.3-1,0.3-2,0.4-2.9c0-0.3,0-0.8,0.1-1.1
		c2.3-3,2.5-6.1,2.6-8.7c0-0.5,0.1-1.1,0.1-1.6c0.2-1.4,0.1-2.8,0.1-4.1c-0.1-2.9-0.1-4.1,1.1-5.2c1.8-1.7,1.4-3.9,1.2-4.8v-0.1
		c0.3-1.3,0.5-2.7,0.8-4c0.6-3.5,1.2-6.7,2.5-9.4c1.6-3.2,3.7-6.6,6.4-10.5c3-4.3,4.4-9.4,5.8-14.4c0.2-0.7,0.4-1.5,0.6-2.2
		c0.6-2,0.3-3.9,0.1-5.4c-0.1-0.9-0.2-1.8-0.1-2.3c0.2-0.8,0.3-1.6,0.5-2.4c0.5-2.8,0.8-4.2,2-4.9c2.2-1.4,4.6-2.7,7-4
		c1.1-0.6,2.2-1.2,3.4-1.9c1.7-1,2.5-3,1.8-4.8c1.1-1,1.9-2.3,1.4-4.3v-0.1c0.1-0.2,0.6-0.8,0.9-1.2c0.5-0.6,1.1-1.3,1.6-2.1
		c0.6-1,1.1-2.1,1.7-3.1c0.9-1.9,1.8-3.6,2.9-4.9l0.4-0.4c1.7-2,2.8-3.2,4.6-3.6c2.8-0.6,5.3-1.9,7.7-3.2c1.3-0.7,2.5-1.3,3.7-1.8
		c1.5-0.6,3-1.1,4.6-1.6c2.7-0.9,5.5-1.8,8.2-3.3c0.5-0.3,1-0.5,1.5-0.8c3.5-1.9,6.5-3.6,9.9-3.3c1.7,0.1,3-0.7,3.5-1.1l2.5-1.4
		c1.9-1,3.7-2,5.6-3l0.5-0.3c0.9-0.5,1.9-1,2.8-1.7c1.6-1.2,3.2-2.4,4.9-3.7c0.6-0.4,1.2-0.9,1.8-1.4l0.7-0.3c0.7-0.3,1.3-0.7,2-1
		h0.1c0.4-0.1,1.1-0.2,1.8-0.6c1.4-0.7,2.8-1.4,4.1-2c2.8-1.4,5.4-2.7,8.1-3.8c2.3-0.9,4.9-1.5,7.7-2l1.4-0.3
		c1.1-0.2,2.3-0.4,3.6-0.5c1.3-0.2,2.6-0.3,4-0.6c1.1-0.2,2.1-0.6,3-0.9c0.9-0.3,1.8-0.6,2.3-0.6c8.7-0.1,17.5-0.1,26-0.1
		c2.7,0,5.5,0,8.2,0h7.5c10.1,0,20.6,0,30.9,0.1c0.2,0.1,0.6,0.3,1,0.5c0.6,0.3,1.4,0.8,2.3,1.2c0.4,0.2,0.9,0.3,1.4,0.4l1.5,0.1
		c2.7,0.2,6,0.5,9.3,0.8c2.1,2.1,4.8,2.5,6.6,2.7c1.3,0.2,2.2,0.3,2.7,0.7c2.7,2,5.9,2.5,9,2.9c2.3,0.3,4.4,0.7,6.2,1.6
		c2.7,1.3,5.7,1.8,8.6,2.2c1.6,0.2,3.1,0.4,4.5,0.8c2.9,0.7,5.1,2.1,7.7,3.7c0.8,0.5,1.5,0.9,2.3,1.4c0.6,0.4,1.2,0.6,1.6,0.7
		c0.2,0.1,0.3,0.1,0.4,0.2c1.1,0.6,2.2,1.2,3.3,1.8l1.2,0.7c1.1,0.8,2.2,1,3,1.1c0.1,0,0.2,0,0.3,0c2.2,1.6,4.4,3.3,6.5,4.9
		c2.1,1.6,4.3,3.3,6.5,5c1.6,1.1,3.2,2,4.9,2.9c0.2,0.1,0.3,0.2,0.5,0.3c0.9,3.6,3.5,5.9,7.7,6.7c0.2,0,0.3,0.1,0.4,0.1
		c1,0.7,1.9,1.3,2.9,1.9c3.2,2,5.9,3.7,7.4,6.6c0.8,1.5,2.1,2.2,2.8,2.6c0.1,0.1,0.2,0.1,0.3,0.2c0.9,0.6,1.8,1.1,2.8,1.6
		c2,1.2,3.9,2.3,5.6,3.6c0.5,0.4,1,0.6,1.4,0.8c0.2,2.2,2.3,3.5,3.6,4.4c0.3,0.2,0.6,0.4,0.8,0.5c1.6,1.4,3.2,2.3,4.5,2.9
		c0.2,0.1,0.6,0.8,0.9,1.2c0.9,1.3,2.3,3.2,4.8,3.8c1.8,0.4,2.8,1.1,3.7,2.8c0.9,1.7,1.9,3,3,4.1c3.1,3.1,7,7.2,8.7,12.3
		c1.5,4.2,3.5,7.6,6.4,10.5c0.2,0.3,0.5,1.2,0.7,1.9c0.2,0.5,0.3,1,0.5,1.5c0.1,0.2,0.2,0.6,0.3,0.9c0.2,1,0.5,2.3,1.4,3.6
		c2.9,4.2,4.3,8.1,4.4,12.2c0,1.7,0.8,3.1,1.3,4.1c0.1,0.2,0.3,0.5,0.4,0.7c0.5,1.1,1,2.1,1.5,3.1c0.9,1.9,1.8,3.7,2.1,5.3
		c0.9,4.9,1.2,10.1,1.6,15.1l0.2,2.5c0.6,8.2,2.3,16.6,10.4,22.5c0.5,1.8,0.9,3.7,1.4,5.5c0.5,2.1,1,4.3,1.6,6.4
		c0.2,0.8,0.4,1.7,0.6,2.7c0.7,3.1,1.4,6.5,3.5,9.3c0.1,0.1,0.1,0.2,0.2,0.3c0,0,0,0,0,0.1l-0.2,0.3c-0.5,0.9-0.7,1.9-0.4,2.9
		c0.2,1,0.3,2.2,0.4,3.4c0.1,1.2,0.2,2.5,0.5,3.8c0.5,2.7,1.2,5.5,1.8,8.1c0.4,1.7,0.9,3.5,1.2,5.3c-1.9,3.2-2.3,6.6-2.6,9.6
		c-0.2,2.3-0.4,4.5-1.4,6.3c-2.6,5.3-2.4,11.7-2.2,17.4c0,0.8,0.1,1.6,0.1,2.4c0.1,3.7,1.1,7.7,3.3,12.6c1,2.4,2.5,4.4,3.8,6.4
		c0.8,1.1,1.5,2.1,2.1,3.1c0,0.2,0.1,0.7,0.1,1s0,0.6,0.1,0.9c0.1,0.6,0.1,1.3,0.1,2c0,1.7,0.1,3.6,0.7,5.5c0.4,1.1,0.9,2.2,1.3,3.2
		c1.3,2.9,1.9,4.5,1.1,6.4c-0.5,1.2-0.5,2.4,0.1,3.7c0.1,1.2,0.3,2.4,0.4,3.6l0.1,1.1c-0.2,1.9-0.1,3.6,0,5.2v0.6c0,0.3,0,0.7,0,1
		c0,0.5,0,1.2,0,1.8c0.1,0.6,0.2,1.2,0.3,1.7c0.1,0.3,0.1,0.7,0.1,0.7c-0.1,0.6-0.1,1.2-0.2,1.8c-0.3,2.7-0.5,5.3-1.2,7.7
		c-0.6,2.1-1.3,5-2.5,6c-2.4,2.2-3,4.9-3.4,6.9c-0.3,1.3-0.5,2.1-0.9,2.6c-2.1,2.2-1.9,5.2-1.8,7.7c0,0.6,0.1,1.2,0.1,1.7
		c-5.4,2.3-8.1,7.6-8.9,12c-0.7,4.4-2.8,7.4-6.4,11.5c-1.1,1.2-1.7,2.5-2.1,3.5c-0.6,1.3-1.1,2.6-1.6,3.9c-1,2.5-1.9,4.8-3.1,6.9
		c-1.3,2.2-2.8,4.3-4.4,6.5c-1.1,1.4-2.1,2.9-3.2,4.5c-1.8,2.7-3.4,5.6-5,8.4c-0.6,1-1,2-1.4,3.1c-0.2,0.5-0.4,1.1-0.7,1.7
		c-0.5,1.1-0.4,2.3,0.1,3.4c-0.3,4.6-0.6,8.8-1.1,13c-0.8,6.6-1.9,10.1-6,12.2c-1.3,0.6-1.9,1.6-2.3,2.2l-0.1,0.1
		c-0.8,0.9-1.6,1.8-2.4,2.8c-1.8,2.1-3.5,4.1-5.3,5.7c-4.9,4.3-9.7,9.4-11.9,16.9c-0.1,0.5-0.9,1.3-1.4,1.7c-3.9,0.3-6.7,2.2-9,3.7
		c-0.9,0.6-1.8,1.2-2.6,1.6c-2.5,1.2-4.7,2.8-6.8,4.2c-1.7,1.2-3.4,2.3-5.1,3.3c-1.6,0.9-3.4,1.6-5.2,2.3c-2.2,0.9-4.6,1.9-6.8,3.2
		c-2.4,1.4-5,1.3-8.2,1.3c-1.5,0-3-0.1-4.6,0.1c-2.3,0.2-4.7,0-7.2-0.2c-2.1-0.2-4.2-0.3-6.4-0.3c-3.4,0-6.7,0.2-10,0.3
		c-4.3,0.2-8.8,0.4-13.1,0.3h-0.3c-4-0.1-6.5-0.2-8.1-2.4c-1.3-1.6-3.2-2.3-3.9-2.5c-1.9-0.5-3.8-1-5.7-1.5c-3.5-0.9-7-1.8-10.4-2.9
		c-2.6-0.8-5.3-2.1-8.1-3.8c-1.3-0.8-2.6-1.8-3.9-2.9c-2-1.6-4.1-3.2-6.5-4.4c-0.6-0.3-1.1-0.5-1.7-0.8c-2.6-1.1-2.6-1.3-2.6-2.2
		c-0.1-2.2-1.8-3.4-2.4-3.8c-0.8-0.6-1.6-1.1-2.4-1.6c-1.7-1.1-3.2-2.2-4.6-3.4c-0.6-0.5-1.2-1.4-1.8-2.2c-0.4-0.6-0.8-1.1-1.2-1.6
		c-0.3-0.4-0.5-0.7-0.8-1.1c-0.8-1.2-1.8-2.6-3.3-3.7c-1.3-0.9-2.5-1.6-3.8-2.3c-2.7-1.5-4.4-2.5-5.3-4.3c-0.1-0.2-0.1-0.3-0.1-0.5
		c-0.3-1-1-3.7-3.8-4.1c-1.2-0.2-2.2-1.1-3.7-2.6c-1.1-1.1-2.3-2.3-3.8-3.3c-0.6-0.4-1.1-0.8-1.7-1.2c-0.8-0.6-1.6-1.2-2.5-1.7
		c-0.8-0.5-1.7-0.9-2.4-1.3c-0.7-0.3-1.4-0.7-1.9-1c-2.8-1.8-5.6-3.8-8.3-5.7l-1.1-0.8c-0.3-0.2-0.6-0.5-0.8-0.8
		c-1.3-1.5-2.7-3.3-4.2-5.2c-1.4-1.8-3.1-3.2-4.6-4.4c-1.5-1.2-2.9-2.3-3.7-3.6c-1.4-2.3-3.3-4.2-4.9-5.8c-1.4-1.4-3-2.4-4.4-3.5
		c-2.3-1.6-4.4-3-5.3-5.2c-0.6-1.4-1.6-2.2-2.2-2.6c-0.1,0-0.1-0.1-0.2-0.1c-0.7-0.7-1.4-1.4-2.1-2.1c-1.2-1.1-2.5-2.3-2.9-3.3
		l-0.4-0.9c-1.8-4.4-3.6-9-8.5-12.5c-1.4-1-2.9-3.3-3.6-5.6c-0.7-2.2-0.8-4.6-1-7.3c-0.1-1.2-0.2-2.4-0.3-3.7
		c-0.3-2.9-0.6-5.8-1-8.6l-0.4-3.4c-0.1-1.2-0.8-2.2-1.7-2.9l-0.3-0.2c-0.2-0.2-0.7-0.5-1.3-0.7c-1.6-0.7-4.5-5.6-4.2-7.4
		c0.3-1.4,0.2-2.8,0.2-4.2c0-0.1,0-0.3,0-0.4c0.6-0.8,0.9-1.7,1-2.7c0.1-1.3-0.2-2.7-1-4c0.4-1.1,0.8-2.5,0.3-4.1
		c-0.1-0.5-0.3-1-0.4-1.4c-1.2-3.8-1-4.1,0.2-5s1.9-2.4,1.9-4.1c0-0.7,0-1.5,0-2.2c0.1-2.3,0.1-4.7-0.2-7.2
		c-0.3-2.9-3.2-5.4-5.7-5.9c-2.6-0.6-6.4,0.8-7.7,3.5c-0.8,1.7-1,3.4-1.2,5c-0.1,0.5-0.1,1-0.2,1.5c-0.2,1-0.1,2,0,2.7
		c-2.5,1.2-2.5,4.4-2.5,5.8v4c-0.1,6.5-0.1,13.1,0,19.7c0,2,1,3.5,1.8,4.6c0.2,0.3,0.4,0.6,0.5,0.8c0.1,0.2,0.2,0.4,0.4,0.6l0.3,4.7
		c0.1,1.4,0.8,2.6,2,3.2c0.2,0.1,0.5,0.2,0.7,0.3c0,0.1,0.1,0.2,0.1,0.2c0.9,1.5,1.8,2.8,2,4c0.5,2.7,0.7,5.5,0.8,8.5
		c0.1,1.4,0.1,2.8,0.2,4.3c0,0.4,0,0.8,0.1,1.3c0.1,2.9,0.3,7.4,4.8,10.2c0.5,0.3,1.1,0.6,1.5,0.7c0.9,1.5,1.7,2.9,2.6,4.5
		c1.1,2,2.2,4,3.5,6c1.6,2.6,3.3,5,5,7.4c0.7,1.1,1.5,2.1,2.2,3.2c0.1,0.2,0.3,0.4,0.4,0.6c0.3,0.4,0.6,0.8,0.7,1.1
		c1.5,2.7,3.5,6.4,8.2,7.6c0.1,0.1,0.2,0.2,0.3,0.3l0.3,0.3c2.3,2.2,4.7,4.6,7,7c0.9,0.9,1.7,1.9,2.5,2.7c0.3,0.4,0.7,0.8,1,1.1
		c0.1,0.1,0.2,0.2,0.3,0.3c0.6,0.5,1.2,1.1,1.8,1.5c1.3,1.1,2.4,2,3.4,3c0.3,0.3,0.6,0.7,1,1.2s0.9,1.1,1.5,1.7
		c0.6,0.6,1.2,1.1,1.7,1.5c0.5,0.4,1,0.8,1.2,1.1c2.8,3.7,6.2,5.9,9.4,7.5c1.9,4.7,7.6,8.2,11.6,9c4.1,0.8,4.2,1.2,4.4,3.6
		c0.1,1.2,0.8,2.3,1.9,3c8.5,5.2,15.2,12.1,22.2,19.4c1.7,1.8,3.5,3.6,5.3,5.3v0.9c0,1.6,1,3.1,2.5,3.7c0.7,0.3,1.5,0.3,2.2,0.2
		l6.7,4c0.5,0.3,1.1,0.6,1.6,0.9c1.1,0.6,2,1.2,2.9,1.8c0.3,0.2,0.7,0.6,1.1,1c1.1,1.1,2.5,2.4,4.5,3c3.8,1,8.3,2.4,12,5.3
		c1.3,1,3.4,2.3,6,2.9c3.6,0.9,7.2,1.6,10.7,2.3c1.2,0.2,2.5,0.5,3.7,0.8c3.5,3,7.7,2.6,10.5,2.3c1-0.1,1.9-0.2,2.7-0.1
		c4.5,0.3,9,0.1,13.3-0.1c2.9-0.1,5.9-0.2,8.7-0.2c-0.1,4,0.4,7.9,1.5,11.3c0.8,2.5,1.9,4.6,3,6.8c0.8,1.5,1.5,2.9,2.1,4.3
		c2.2,5.6,6.4,8.4,12.6,8.5h1.5c3.3,0,6.7,0,9.3,1c2.1,0.8,4.1,0.9,5.9,1c2.7,0.2,3.8,0.3,4.7,1.3c1.6,1.8,3.8,1.5,4.5,1.4
		c0.8-0.1,1.7-0.2,2.5-0.4c1.4-0.2,2.8-0.5,4-0.5c12.5,0,25.9,0,39.3,0.3c2.4,0,4.9,0.3,7.4,0.5c2.8,0.3,5.7,0.5,8.7,0.5
		c3.4,0,5.8,1.4,8,4.6c1,1.5,3,2.2,4.7,1.5c1.6-0.6,3.1-0.1,5.6,0.9c1.8,0.7,3.8,1.5,6,1.7c1.2,0.1,2.3,0.1,3.5,0.2
		c3.7,0.1,6.1,0.2,8,1.9c0.7,0.6,1.6,1,2.6,1c0.4,0,0.8,0,1.3,0c0.7,0,1.5,0,2,0c1.9,0.2,3.8,0.4,5.7,0.6c3.6,0.4,7.3,0.8,11,1
		c0.1,0,0.3,0,0.4,0c1.7,0,3-0.7,4.2-1.3c0.5-0.2,0.9-0.5,1.4-0.7c1.5-0.7,2.5-2.2,2.4-3.8C568.8,686.5,567.7,685.1,566.2,684.5z
		 M487.5,557.8c-0.3-0.3-0.5-0.5-0.7-0.8C487,557.3,487.3,557.6,487.5,557.8z"/>
	<path d="M437.8,431.4c-0.3-1.1-0.7-2.3-1.3-3.3c-2.1-3.5-4.8-6.7-4.2-11.3c0.2-1.7-0.1-3.6-0.5-5.3c-0.5-2.3-1.1-4.7-2-6.9
		c-1.2-3.3-1.8-7.5-4.2-9.6c-2-1.8-6.2-2-9.3-1.7c-3.2,0.3-5.7,2.5-6.2,6.2c-0.2,1.7,4,16.3,4.4,22.6c0.1,0.8,1,1.6,1.5,2.3
		c0.7,3.5,1.7,7,2.2,10.6c0.4,2.8,5.8,18.1,6.6,21c2.4,9.1,4.1,18.4,6.3,27.6c0.6,2.4-0.1,5.1,2.8,7.2c1.8,1.2,2.1,4.6,2.7,7.2
		c0.2,0.7-1.2,2.4-1.9,2.4c-3.4,0.1-6.9-0.1-10.3-0.4c-8.9-0.6-17.8-1.6-26.7-1.9c-13-0.4-26-0.4-39-0.6c-6.2-0.1-7.8,0.2-9.3,7.2
		c-1,4.8,2.3,11.3,6.7,12c2.7,0.4,5.5,0,8.3,0.2c11.2,0.6,22.5-1.4,33.5,1.6c2.2,0.6,3.9,0.2,5.8-0.1c0.6-0.1,1.7-0.1,2.3,0
		c2.7,0.4,5.4,1.2,8.1,1.3c4.8,0.3,9.6,0.1,14.5,0.3c2.1,0.1,4.4,1.4,6.2,0.9c4.9-1.2,9.7-1.3,14.9-0.6c2.4,0.3,4.6-1.3,5.1-3.6
		c0.5-2.6,1.1-5.3,1.5-8c0.2-1.4,0.2-2.9,0.1-4.4c-0.3-2.6-0.8-5.2-1.4-7.7c-0.6-2.2-1.4-4.3-2.1-6.5c-0.5-1.9-0.9-3.9-1.4-5.9
		c-0.5-2.1-1-4.1-1.4-6.2c-0.4-2,0.1-4.7-1.1-5.7c-3.2-3-2.8-7.1-4.1-10.7c-0.9-2.4-0.9-5.1-1.5-7.6c-0.4-1.8-1.2-3.5-1.6-5.3
		c-0.4-1.6-0.7-3.3-1-5L437.8,431.4z"/>
	<path d="M335.9,551.5c-1.6,2.9-3.3,6.3-1.5,10.4c1.3,3,6.1,7,9.3,5.7c0.1,0.6,4.4,0.5,6.3,0.5c4.8,0,9.7,0.3,14.5,0.5
		c5.9,0.3,11.8,0.8,17.8,0.8c4.9,0.1,9.8-0.5,14.7-0.5c5.8,0,11.6,0.4,17.5,0.5c9.6,0.2,19.2,0.4,28.8,0.2c5-0.1,10.1,2.1,14.9-0.9
		c0.7-0.4,1.8-0.5,2.2-1c2.2-3.3,2-7.1,1-10.6c-0.9-3.2-4-3.9-7-4.1c-8.5-0.5-17-1-25.5-1.3c-5-0.2-10-0.1-15-0.3
		c-6.6-0.3-13.2-1-19.8-1.3c-6.1-0.3-12.2-0.1-18.3-0.5c-6.3-0.4-12.5-1.4-18.8-1.8c-4.7-0.3-9.5-0.5-14.2,0.1
		C340.3,548.2,337,549.6,335.9,551.5z"/>
	<path d="M457.8,400c0.2,0.8,0.9,1.5,1.7,1.7c0.5,0.1,0.9,0.2,1.4,0.3c0.2,0,0.4,0.1,0.6,0.1c2.5,3.3,5.7,4,8.7,4c1,0,2-0.1,2.9-0.1
		c0.4,0,0.8-0.1,1.2-0.1c8.8-0.5,17.3-8.7,18.3-17.5c0.5-4.7-0.8-8.1-2.3-11.2c-4.3-8.5-9.4-12-18-11.9c-8.8,0.1-13.9,6.1-16.9,10.6
		c-0.2,0.2-0.5,0.6-0.9,0.9c-0.6,0.5-1.3,1.1-1.9,2c-4.1,6.6-0.2,12.6,1.1,14.6c0.2,0.3,0.3,0.5,0.4,0.8c0.3,0.6,0.7,1.3,1.2,2
		c0.8,0.9,1.6,1.8,2.5,2.6C457.7,399.1,457.7,399.5,457.8,400z"/>
	<path d="M332.1,372.9c-2.3-4.2-5.9-9-12.9-8.6c-1.4,0.1-2.9,0-4.4,0c-1.1,0-2.2-0.1-3.3-0.1c-6.2,0.1-13,6.4-13.7,12.8
		c-0.1,1.2-0.5,2.5-1,4c-0.3,0.8-0.5,1.7-0.8,2.6c-0.2,0.6-0.1,1.1,0.1,1.7c0.2,0.4,0.4,0.8,0.6,1.2c0.4,0.7,0.9,1.6,0.9,2.3
		c0.3,3.6,1.3,6.3,3.5,8.9c3.5,4.1,8.7,6.6,13.9,6.6c0.1,0,0.1,0,0.2,0c8.9-0.1,15.9-5,19-13.5c0.4-0.9,0.6-1.9,0.9-2.8
		c0.2-0.6,0.3-1.2,0.5-1.8c1.6-4.8-0.7-8.5-2.5-11.5C332.8,374.1,332.4,373.5,332.1,372.9z"/>
	<path d="M215.7,628.8c-0.2-0.9-0.9-1.5-1.7-1.8c-5.8-1.7-11-0.5-15.3,3.8c-1.6,1.5-2.8,2.1-4.6,2c-1.4-0.1-2.7,0.7-3.5,1.5
		c-2.8,2.8-5.5,5.7-8.1,8.5c-0.2,0.3-0.5,0.5-0.8,0.8c-0.9,0.9-2.1,1.9-2.6,3.5c-0.3,1.1-1,2.2-1.8,3.3c-1.3,1.9-2.8,4.2-2.8,7.3
		c-0.1,0.1-0.1,0.1-0.2,0.2c-0.8,0.8-1.5,1.7-2.3,2.6c-1.9,2.1-3.7,4.2-5.6,6c-0.6,0.5-2,0.8-3.2,1c-0.3,0.1-0.6,0.1-0.8,0.2
		c-1.1,0.2-2.3,0.3-3.5,0.4c-0.6,0-1.3,0.1-1.9,0.2c-0.7,0.1-1.4,0.5-1.8,1.1c-0.4,0.6-0.5,1.4-0.3,2.1l1.7,5.9
		c0.3,1.1,1.4,1.9,2.6,1.8c0.3,0,0.6-0.1,0.9-0.1c0.2,0,0.5-0.1,0.6-0.1l0.9,0.2c1.4,0.3,2.9,0.6,4.5,0.6c2.4,0,4.9-0.7,7-3.3l0,0
		c0.4,0,1-0.1,1.5-0.3l0.3-0.1c1-0.3,2.5-0.8,3.1-2.3c1.3-3.1,3.5-5.7,5.7-8.5c3-3.6,6-7.3,7.4-12.3c0.3-1.2,1.3-2.5,2.4-3.8
		c0.8-1,1.6-2,2.3-3.2c0.8-1.4,1.3-1.6,2.3-1.6h0.1c1.5,0,2.7-0.9,3.5-1.6c0.3-0.2,0.5-0.4,0.7-0.5s0.3-0.2,0.5-0.3
		c0.1-0.1,0.3-0.2,0.4-0.2c3-0.7,5.9-1.4,9.1-2.2l3.2-0.8c0.6-0.2,1.2-0.6,1.6-1.1c0.3-0.6,0.5-1.3,0.3-1.9L215.7,628.8z"/>
	<path d="M219.3,551.3c-0.1-2.4-0.2-4.9-0.5-7.3l0,0c-0.3-2.4-1.1-4.9-2.2-7.5c-0.6-1.5-1.5-2.7-2.3-3.9c-0.3-0.5-0.6-0.9-0.9-1.4
		c-0.6-1-1.9-1.4-3-1l-1.5,0.6c-1,0.4-1.6,1.3-1.6,2.3c0,0.6,0,1.2-0.1,1.8c-0.1,1.5-0.1,3.1,0.2,4.7c0.3,1.4,0.7,2.7,1.2,3.9
		c0.5,1.5,1,2.9,1.1,4.2c0.1,4.5-0.1,9.1-0.3,13.5c-0.1,2.2-0.2,4.5-0.2,6.7c0,0.8,0.2,1.4,0.3,1.9c0,0.1,0.1,0.2,0.1,0.3
		c-0.4,1.8-0.9,3.7-1.3,5.5c-0.3,1.3-0.7,2.6-1,3.9c-0.2,0.9-0.3,1.1-0.8,1.7l-0.4,0.4c-2,2-5.7,5.6-3.3,10.7
		c0.4,0.9,1.2,1.4,2.2,1.5h0.2c0.7,0,1.3,0,1.9,0c3.9,0,5-0.8,7.1-5.1c0.9-1.8,1.4-3.6,2-5.3c0.2-0.7,0.4-1.4,0.7-2.1
		c0.1-0.2,0.2-0.5,0.3-0.7c0.3-0.9,0.8-1.9,0.7-3.1c0-1-0.4-1.9-0.7-2.5c0-0.1-0.1-0.2-0.1-0.2c0.3-1.6,0.7-3.1,1.1-4.7
		c0.3-1.2,0.6-2.3,0.9-3.5c0.4-1.8,0.6-3.3,0.6-4.7c0-2.8-0.1-5.5-0.2-8.5C219.4,552.7,219.3,552,219.3,551.3z"/>
	<path d="M366.4,669.5c-0.3-0.7-0.8-1.5-1.5-2.1c-1.8-1.5-3.6-3-5.4-4.4c-1.4-1.1-2.8-2.3-4.2-3.4l-1.6,1.9l1.6-1.9
		c0,0-0.1-0.1-0.1-0.2c-0.6-2.4-1.2-4.8-1.7-7.1l-0.6-2.4c-0.2-0.9-0.9-1.6-1.7-1.8l-5.1-1.5c-0.7-0.2-1.5-0.1-2.1,0.4
		c-0.6,0.4-1,1.1-1.1,1.9c-0.4,5.8,1.3,10.7,4.4,13.2l-0.3,1.3c-0.2,1,0.1,2,1,2.6c1.3,0.9,2,2.1,2.9,3.4l0.1,0.2
		c0.1,0.1,0.1,0.2,0.2,0.3c0.4,0.7,1,1.8,2.3,2.3c3.3,1.2,5.8,2,8.2,2.6c0.3,0.1,0.5,0.1,0.8,0.1c1.1,0,2-0.5,2.7-0.9
		c0.2-0.1,0.3-0.2,0.5-0.3c0.7-0.3,1.2-0.9,1.4-1.5c0.2-0.7,0.1-1.4-0.3-2.1C366.6,669.9,366.5,669.7,366.4,669.5z"/>
</g>
<g>
	<path d="M120.3,157c-7.1,0-14.1-3.3-18.8-8.9c-2.9-3.4-4.5-7.2-5-12c0-0.1-0.1-0.1-0.1-0.2l-0.2-0.3l-0.8-1.6l-0.1-0.4
		c-0.3-0.8-1-3.1-0.1-5.8c0.1-0.3,0.2-0.6,0.3-0.9c0.2-0.5,0.3-1.2,0.6-1.8c0.2-0.7,0.6-1.9,0.7-2.4l0-0.2
		c1-9.6,10.6-18.4,20.1-18.6l0.1,0c0.6,0,1.3,0,1.9,0.1c1,0,2,0,3,0.1c0.9,0,1.7,0,2.3,0c8.1-0.5,14.5,3.6,19.1,12l0.1,0.2
		c0.1,0.2,0.2,0.4,0.3,0.5c0.2,0.3,0.4,0.7,0.6,1c2.1,3.4,5.5,9.2,3,16.7c0,0.1-0.1,0.3-0.1,0.4c-0.1,0.5-0.2,0.9-0.4,1.4
		c-0.1,0.2-0.1,0.5-0.2,0.7c-0.2,0.7-0.4,1.5-0.8,2.4c-4,10.9-13.4,17.5-25,17.6L120.3,157z M109.4,134.6c0.2,2.3,0.7,3.6,2,5.1
		c2.3,2.6,5.7,4.3,8.9,4.3h0.2c6.1-0.1,10.7-3.3,12.9-9.2l0.2-0.4c0.1-0.2,0.2-0.6,0.3-0.9c0.1-0.4,0.2-0.9,0.4-1.3
		c0-0.1,0.1-0.3,0.1-0.4c0.1-0.5,0.2-0.9,0.4-1.4c0.6-1.7-0.1-3.1-1.8-5.9l-0.3-0.6c-0.1-0.2-0.2-0.4-0.3-0.5
		c-0.2-0.4-0.4-0.8-0.6-1.1c-2.5-4.5-4.4-5.3-6.8-5.1c-1.1,0.1-2.3,0.1-3.4,0c-1.1,0-2.2,0-3.3-0.1c-0.4,0-0.9,0-1.3,0
		c-2.9,0.1-6.9,3.9-7.3,7c-0.2,1.9-0.7,3.6-1.3,5.4l-0.1,0.2c-0.1,0.2-0.1,0.4-0.2,0.6C108.5,131.2,109.3,132.8,109.4,134.6z"/>
</g>
<g>
	<path d="M102.1,88.2c-7.3,0-13-2.3-17.4-6.9c-0.3-0.1-0.6-0.1-1-0.2L83.4,81c-3.6-0.9-6.5-3.8-7.4-7.4l-0.1-0.3
		c0-0.1-0.1-0.3-0.1-0.4c-0.8-0.9-1.6-1.8-2.4-2.6L73,69.7c-0.9-1.3-1.7-2.6-2.4-4.1L70.3,65c-7-10.8-7.6-20.9-1.8-30.2l0.1-0.2
		c1.4-2.1,2.9-3.5,4.3-4.6l0.2-0.1c0.1-0.1,0.2-0.2,0.2-0.3c0,0,0,0,0.1-0.1c3.5-5.2,13.3-19.2,32-19.4c16.1-0.2,26.5,6.6,34.6,22.6
		l0.1,0.1c2.8,5.8,5.2,12.4,4.3,21.4c-2,17.3-18.1,32.7-35.3,33.7l-0.3,0c-0.1,0-0.2,0-0.2,0c-0.8,0.1-2.2,0.1-3.6,0.2
		C104,88.2,103,88.2,102.1,88.2z M89.5,68.8h1.9l2,2.6c2.1,2.7,4.5,3.8,8.7,3.8c0.7,0,1.4,0,2.1-0.1c0.8,0,1.7-0.1,2.4-0.1
		c0.1,0,0.2,0,0.2,0c0.4,0,0.9-0.1,1.5-0.1c10.8-0.7,21.7-11.2,23-22.2c0.6-5.4-0.7-9.5-3-14.3C122.5,27,116.5,23,105.5,23.1
		c-8.6,0.1-15.2,4.4-21.6,14l-0.4,0.5L83,38.2c-0.4,0.4-1,1.2-1.9,1.8c-0.7,0.6-1.2,1.1-1.6,1.6c-3.8,6.1-1.2,11.6,1.7,16.2
		c0.5,0.7,0.9,1.4,1.2,2.2c0.3,0.6,0.7,1.2,1.1,1.8c1.1,1.2,2.1,2.4,3.2,3.3l3.2,2.8L89.5,68.8z M106.7,75
		C106.7,75,106.7,75,106.7,75C106.7,75,106.7,75,106.7,75z"/>
</g>
</svg>
