<?xml version="1.0" encoding="UTF-8"?><svg id="Layer_1" xmlns="http://www.w3.org/2000/svg" viewBox="0 0 175.62 187.08"><defs><style>.cls-1{stroke-width:0px;}</style></defs><path class="cls-1" d="m174.67,183.76c-.68-.23-1.33-.49-1.95-.68-1.27-.46-2.41-.85-3.55-1.27h0c-.78-.26-1.53-.39-2.28-.52-.98-.16-1.89-.33-2.73-.78-1.11-.65-2.38-.88-3.58-1.07-.2-.52-.68-.85-1.24-.85h-1.82c-.07-.03-.2-.1-.26-.13-.1-.03-.2-.1-.29-.13-.07-.03-.16-.1-.29-.16-.36-.23-.85-.49-1.46-.52-2.05-.03-4.1-.03-6.12-.03h-10.94c-.36,0-.75-.03-1.14-.07-.59-.03-1.17-.1-1.82-.07-1.46.07-2.6-.1-3.68-.59-1.4-.62-2.9-1.2-4.39-1.2h-.07c-1.17,0-1.86-.23-2.41-.81,0-.07-.03-.2-.03-.26-.03-.2-.07-.46-.1-.72-.07-.36-.29-.65-.59-.85-.16-.26-.36-1.14-.23-2.25h1.04s1.86-.07,1.99-.26c.46-.13.91-.26,1.37-.39.26-.07.59-.07.94-.1.88-.03,2.15-.07,3.16-1.07.07,0,2.93-1.33,2.83-1.63,0-.03.03-.03.03-.07.78-.26,1.46-.65,2.08-1.01,1.33-.75,2.12-.33,3.22-.75.46-.16,1.66-1.69,1.66-1.69.07-.1.13-.16.2-.26.39-.52.78-1.04,1.11-1.69l.07-.16c.59-1.2,1.11-2.25,2.08-2.99.68-.52,1.14-1.2,1.56-1.79.49-.75.81-1.2,1.33-1.43.23-.1.49-.26.65-.59.1-.1.23-.16.33-.26.39-.29.75-.59,1.14-.91.36-.29.55-.68.75-.94l.07-.1c.13-.23.26-.49.33-.68.03-.1.1-.26.16-.36.72-.42,1.53-1.24,1.43-2.8,0-.16-.03-.36-.03-.52-.07-1.27-.13-2.38.33-3.48.49-1.17.49-2.41.52-3.48,0-.23,0-.46.03-.68h0l.65-.65c.16-.16.29-.33.46-.46.2-.2.39-.42.59-.62.16-.16.36-.33.55-.49.75-.62,1.92-1.56,1.89-3.48,0-.68.36-1.56.72-2.38.1-.23.2-.46.26-.65.07-.07.2-.13.29-.2,1.04-.39,2.41-1.14,2.18-3.25-.07-.68.16-1.3.85-2.18.94-1.2,1.79-2.47,2.54-3.61.46-.68.33-1.56.29-1.79-.1-.46.1-.78.62-1.5.03-.03.07-.07.07-.1.59-.03,1.07-.46,1.2-1.04.07-.33.1-.62.13-.91.03-.26.07-.65.13-.75.85-1.14.88-2.12.85-3.12-.1-2.41-.07-4.88-.03-7.29.03-1.14.03-2.31.03-3.45,0-.94,0-2.18-.16-3.45-.1-.68-.23-1.33-.39-1.95-.07-.33-.16-.65-.23-.98-.03-.13-.03-.23-.07-.36-.1-.65-.23-1.53-1.17-2.38-1.3-1.17-2.12-2.25-1.89-3.74.1-.75.1-1.46.07-2.18,0-.33-.03-.65-.03-.98,0-.23,0-.46-.03-.68,0-.26-.03-.62,0-.72.85-1.59,1.07-3.19,1.17-4.78.46-.2.75-.65.75-1.17v-2.28c0-.39-.16-.75-.49-1.01-.23-.16-.39-.29-.55-.39t-.07-.03c-.16-.42-.26-.88-.33-1.3-.1-.52-.1-1.11-.13-1.72v-.23c0-.39,0-.81-.03-1.2,0-.62,0-1.27-.03-1.92-.07-1.04-.29-1.99-.52-2.9-.26-1.11-.52-2.15-.46-3.19.07-.98-.52-1.82-1.07-2.54-.29-.36-.62-.68-.91-.94-.26-.23-.52-.46-.62-.65-.29-.49-.62-.98-.94-1.4-.98-1.33-1.56-2.21-1.27-3.52.16-.75.03-1.5-.07-2.12-.03-.16-.07-.29-.07-.46-.07-.46-.16-.88-.26-1.3-.16-.75-.33-1.43-.29-2.08.07-1.69-.42-3.09-.94-4.26-.03-.07-.07-.2-.1-.33-.07-.26-.13-.55-.29-.88v-.23c.03-.52.07-1.95-1.5-2.57-.07-.07-.2-.29-.36-.65s-.26-.78-.36-1.2c-.07-.33-.16-.65-.26-1.01-.07-.16-.1-.33-.16-.52-.2-.65-.39-1.4-.85-2.05-.33-.49-.75-.91-1.11-1.27-.68-.68-1.01-1.04-1.01-1.66,0-.68-.49-1.07-.65-1.2-.16-.16-.36-.33-.52-.46-.33-.29-.65-.59-.88-.88-.07-.1-.16-.36-.23-.59-.07-.2-.13-.42-.23-.68-.16-.42-.52-.72-.98-.81-.29-.07-.78-.36-1.17-.72,0-.1,0-.23-.03-.33,0-.03,0-.1-.03-.13-.13-1.11-.88-1.3-1.2-1.33-.75-.1-1.37-.42-1.92-1.07-.36-.42-.81-.65-1.17-.85-.07-.03-.2-.1-.26-.16-.55-1.4-1.66-1.76-2.41-1.99l-.1-.03s-.07-.07-.1-.07c-.1-.13-.2-.23-.29-.36-.72-.91-1.63-2.02-3.32-2.38-.39-.07-.81-.33-.94-.49-.55-1.4-1.5-1.92-2.31-2.38-.16-.1-.29-.16-.46-.26-1.5-.91-2.83-2.08-4.23-3.32-.59-.52-1.2-1.07-1.86-1.59l-.07-.07c-.33-.29-.91-.75-1.66-.65-.59.07-1.14-.1-1.86-1.2-.85-1.3-1.92-1.5-2.93-1.46-.33-.55-.91-.98-2.02-.94h-.2c-1.04-.07-1.82-.2-2.6-.62-.2-.1-.36-.2-.55-.29-1.14-.62-2.47-1.33-4.2-1.3-1.11.03-2.25-.2-3.48-.42-.42-.07-.85-.16-1.27-.23-.1-.16-.2-.33-.36-.46l.03.03c-.1-.1-.39-.36-.85-.46-.26-.03-.59-.1-.91-.07-1.95.2-3.45-.03-4.75-.65-.29-.13-.59-.23-.94-.26-.23-.29-.62-.49-1.01-.49h-11.65c-.16,0-.36,0-.52.07l-1.53.29c-.13.03-.29.1-.42.16-.16.1-.33.2-.46.29-.1.07-.23.16-.33.2-.42.07-.85.1-1.3.1-.33-.42-.91-.62-1.43-.42-.2.07-.39.16-.59.23-.26.1-.52.23-.68.23-1.4.07-2.8.1-4.17.16-1.11.03-2.25.07-3.38.1-.52.03-.98.2-1.33.33-.1.03-.23.07-.33.1-.26.07-.49.16-.68.26-.29.13-.62.23-.81.26-2.15.07-4,.68-5.63,1.89-1.37,1.01-2.54,1.79-3.94,1.95-.52.07-.88.39-1.07.55l-.03.03c-.16.1-.33.2-.46.29-.62.36-1.4.81-1.92,1.69-.03,0-.07,0-.1.03-.59.16-1.2.33-1.79.49-.72.2-1.43.39-2.15.59l-.39.1c-.55.16-1.17.33-1.76.62-.75.36-1.46.75-2.15,1.11-1.2.65-2.38,1.27-3.58,1.76-1.95.78-3.52,1.92-4.69,3.58-.1.13-.23.26-.39.42-.39.39-.88.88-1.07,1.56l-.07.26c-.29,1.04-.46,1.59-.65,1.89-.2.26-.55.55-1.43,1.14-.39.26-.65.68-.75,1.17-.03.1-.13.2-.49.46-.33.23-.72.52-1.01.94-.2.26-.42.52-.68.81-.91,1.01-2.15,2.38-1.72,4.72.16.88-.1,1.99-.39,3.09-.07.29-.13.59-.2.91-.16.72-.46,1.43-.75,2.21-.07.16-.13.29-.2.46-1.99.72-2.28,2.08-2.12,3.22-.03.03-.07.1-.07.13-.07.13-.13.26-.2.42-.03.13-.13.26-.2.39-.2.39-.42.88-.49,1.43-.13.98-.23,1.99-.33,2.99-.33.2-.55.55-.59.98-.1,1.04-.13,2.08-.13,3.09,0,.42,0,.88-.03,1.3-.03.07-.1.16-.13.23-.07.13-.16.29-.23.49-.13.33-.16.68-.03,1.01v.03c-.1.13-.23.29-.36.42-.81,1.04-1.76,2.18-1.99,4-.03.36.07.72.29.98-.03.26,0,.52.13.75v2.8c0,.16.03.29.03.46.03.29.03.59,0,.75-.1.46-.26.91-.39,1.4-.13.36-.23.75-.36,1.14-.13.55.07.98.2,1.2.03.23.1.46.13.65.03.16.1.46.13.62-.65.91-.78,1.82-.46,2.67-.16.23-.23.52-.23.81.03.42.07.81.07,1.2.07.94.13,1.82.16,2.73,0,.23.03.46.03.68.03.72.1,1.37,0,1.99-.13.88.03,1.69.16,2.38.2.91.26,1.4-.03,1.89-.39.62-.2,1.43.16,1.86.1.1.1.29.07.78,0,.13-.03.29-.03.42v.29c-.03.78-.1,1.89.88,2.31.26.1.29.2.46.91.1.55.26,1.24.75,1.82.16.16.33.29.55.36.03.13.07.29.07.39.03.42.03.85.03,1.3v.62c0,.59.39,1.11.98,1.27.1.52.23,1.07.36,1.63.1.36.23.68.33.98s.2.55.26.78c.03.2.03.52.03.81,0,.78,0,1.76.68,2.44.39.39.55.98.78,1.66.26.85.59,1.89,1.4,2.7.1,1.3.94,2.15,1.56,2.73.52.52.78.78.78,1.07,0,.33.16.65.39.91,1.07,1.07,1.79,2.44,2.54,3.87.46.85.91,1.76,1.46,2.6,0,.03,0,.07-.03.1-.1.52.1,1.04.55,1.33.39.26.42.49.33,1.63-.07.52-.1,1.11,0,1.72.1.52.49.94.98,1.04.03,6.25.03,12.6,0,18.75v3.12c-.49.13-.85.55-.91,1.04-.03.23-.07.46-.1.65-.07.42-.1.81-.2,1.17-.33,1.14-.68,2.21-1.07,3.22-.13.29-.16.59-.2.81-.42.2-.75.59-.78,1.17-.07.16-.13.33-.23.49l-.13.26s-.03.07-.03.13c-.13.42-.1.81-.07,1.11,0,.1.03.23.03.29-.07.68-.13,1.33-.23,2.05-.07.42-.1.88-.16,1.3-.03.33.07.62.16.81v.36c-.94.81-1.53,1.89-1.86,3.29,0,.03-.03.07-.03.1-.59-.1-1.17.2-1.43.78-.29.72-.52,1.43-.72,2.12-.36,1.24-.72,2.41-1.53,3.38-.23.26-.33.62-.33.98-.55.55-1.04,1.11-1.63,1.53-.1.1-.26.16-.39.26-.55.33-1.46.88-1.72,2.12-.1.07-.23.16-.33.23l-.1.07c-.23.16-.52.29-.81.42-.78.39-1.76.85-2.47,1.92-.98,1.46-2.02,1.24-2.38,1.17-.62-.13-1.24-.1-1.63-.07h-.2c-.39,0-.75.16-.98.46-.16.2-.29.36-.39.49h0c-.29.03-.59.03-.85,0-.36-.03-1.4-.07-2.02.75-.07.1-.13.2-.16.29h-.23c-1.01,0-2.34,0-3.52,1.2-.1.03-.26.07-.36.1-.42.1-.94.23-1.43.59-.1.07-.39.16-.59.2-.59.16-1.69.46-2.21,1.53l-1.3.13c-.52.07-.98.42-1.11.91-.16.49,0,1.04.42,1.37.07.07.16.16.26.26.36.36.81.85,1.56.88,1.04.07,2.05-.03,2.9-.29.59-.2,1.14-.46,1.63-.68.39-.2.75-.39,1.11-.49.26-.1.59-.1.98-.13.78-.03,1.72-.07,2.7-.68.36-.23,1.01-.29,1.66-.36.36-.03.72-.07,1.04-.13.29-.07.59-.23.75-.46.1-.1.16-.23.26-.33.49-.62.59-.68.85-.68,2.18-.03,9.73-4.46,9.5-4.56.29-.2.59-.36.88-.52.29-.2.55-.42.81-.75.16-.23.33-.46.49-.68.26-.36.49-.68.75-.94.62-.62,1.27-1.2,1.86-1.72.26-.23.49-.42.68-.62.16-.16.29-.36.36-.59.1-.26.16-.52.23-.78.13-.46.23-.85.39-1.17.03-.07.2-.23.33-.36.23-.23.52-.52.72-.91.59-1.07,1.17-2.28,1.69-3.52.2-.42.29-.85.39-1.24.07-.26.13-.49.2-.68.03-.07.2-.26.29-.39.1-.13.29-.29.46-.46.52-.46,1.17-1.04,1.33-1.89.39-2.05.68-4.3.91-7.1.1-1.17.26-2.12.81-2.99.16-.26.33-.52.52-.78.23-.33.46-.65.65-1.01.65-1.14.88-2.47,1.07-3.68l.03-.23c.1-.62.03-1.2-.03-1.72-.03-.23-.07-.46-.07-.68-.03-1.11-.07-2.31-.07-3.52,0-.42.03-.81.07-1.27.03-.39.07-.78.07-1.17.03-.85.03-1.72.03-2.57v-5.79c0-.52-.03-1.04-.07-1.56-.03-.33-.03-.65-.07-.94,0-.33-.03-.68-.03-1.01,0-.46-.03-.94-.07-1.4-.03-.33-.03-.65-.03-1.01,0-.94-.03-1.92-.33-2.93-.2-.62-.46-1.14-.72-1.69-.42-.91-.81-1.72-.75-2.6.07-.75-.46-1.24-.72-1.46-.03-.03-.07-.07-.1-.1-.07-.07-.13-.13-.16-.2-.03-.03-.1-.1-.13-.16.2-.42.13-.91-.13-1.3l-.91-1.27c-.07-.1-.16-.23-.26-.39-.26-.42-.59-.94-1.14-1.33-.52-.36-.75-.91-1.11-1.79-.29-.81-.65-1.72-1.4-2.47-.2-.2-.36-.46-.55-.75-.13-.23-.29-.46-.46-.68-.16-.2-.33-.36-.46-.49-.03-.03-.07-.07-.1-.1-.2-.72-.39-1.46-.59-2.18-.36-1.33-.72-2.7-1.2-4.04-.07-.13-.1-.36-.13-.62-.1-.78-.29-2.12-1.69-2.8h0c-.07-.36-.07-.75-.1-1.17-.03-.52-.07-1.07-.16-1.63-.16-.85-.52-1.66-1.01-2.25-.81-1.01-1.01-2.31-1.07-3.97-.03-.94-.23-1.76-.39-2.54-.07-.23-.1-.42-.13-.65-.13-.55-.29-1.11-.46-1.63-.29-.91-.55-1.79-.46-2.51.13-1.11.13-2.15.1-3.16,0-.52-.03-1.01,0-1.5,0-.26,0-.55.07-.78.16-1.01.29-2.05.46-3.06l.26-1.63h0c1.01-.91.91-2.18.85-2.93-.03-.2-.03-.42-.03-.55.16-1.76.13-3.52.1-5.21v-1.01c.07-.07.13-.16.2-.26.03-.07.1-.13.13-.2.16-.26.39-.59.49-1.01.1-.33.1-.65.13-.94,0-.1,0-.26.03-.36.75-.98.81-1.99.85-2.83,0-.16.03-.36.03-.52.07-.46.03-.91.03-1.33-.03-.94-.03-1.33.36-1.69.59-.55.46-1.27.39-1.56v-.03c.1-.42.16-.88.26-1.3.2-1.14.39-2.18.81-3.06.52-1.04,1.2-2.15,2.08-3.42.98-1.4,1.43-3.06,1.89-4.69.07-.23.13-.49.2-.72.2-.65.1-1.27.03-1.76-.03-.29-.07-.59-.03-.75.07-.26.1-.52.16-.78.16-.91.26-1.37.65-1.59.72-.46,1.5-.88,2.28-1.3.36-.2.72-.39,1.11-.62.55-.33.81-.98.59-1.56.36-.33.62-.75.46-1.4v-.03c.03-.07.2-.26.29-.39.16-.2.36-.42.52-.68.2-.33.36-.68.55-1.01.29-.62.59-1.17.94-1.59l.13-.13c.55-.65.91-1.04,1.5-1.17.91-.2,1.72-.62,2.51-1.04.42-.23.81-.42,1.2-.59.49-.2.98-.36,1.5-.52.88-.29,1.79-.59,2.67-1.07.16-.1.33-.16.49-.26,1.14-.62,2.12-1.17,3.22-1.07.55.03.98-.23,1.14-.36l.81-.46c.62-.33,1.2-.65,1.82-.98l.16-.1c.29-.16.62-.33.91-.55.52-.39,1.04-.78,1.59-1.2.2-.13.39-.29.59-.46l.23-.1c.23-.1.42-.23.65-.33h.03c.13-.03.36-.07.59-.2.46-.23.91-.46,1.33-.65.91-.46,1.76-.88,2.64-1.24.75-.29,1.59-.49,2.51-.65l.46-.1c.36-.07.75-.13,1.17-.16.42-.07.85-.1,1.3-.2.36-.07.68-.2.98-.29.29-.1.59-.2.75-.2,2.83-.03,5.7-.03,8.46-.03h5.11c3.29,0,6.7,0,10.06.03.07.03.2.1.33.16.2.1.46.26.75.39.13.07.29.1.46.13l.49.03c.88.07,1.95.16,3.03.26.68.68,1.56.81,2.15.88.42.07.72.1.88.23.88.65,1.92.81,2.93.94.75.1,1.43.23,2.02.52.88.42,1.86.59,2.8.72.52.07,1.01.13,1.46.26.94.23,1.66.68,2.51,1.2.26.16.49.29.75.46.2.13.39.2.52.23.07.03.1.03.13.07.36.2.72.39,1.07.59l.39.23c.36.26.72.33.98.36h.1c.72.52,1.43,1.07,2.12,1.59s1.4,1.07,2.12,1.63c.52.36,1.04.65,1.59.94.07.03.1.07.16.1.29,1.17,1.14,1.92,2.51,2.18.07,0,.1.03.13.03.33.23.62.42.94.62,1.04.65,1.92,1.2,2.41,2.15.26.49.68.72.91.85.03.03.07.03.1.07.29.2.59.36.91.52.65.39,1.27.75,1.82,1.17.16.13.33.2.46.26.07.72.75,1.14,1.17,1.43.1.07.2.13.26.16.52.46,1.04.75,1.46.94.07.03.2.26.29.39.29.42.75,1.04,1.56,1.24.59.13.91.36,1.2.91.29.55.62.98.98,1.33,1.01,1.01,2.28,2.34,2.83,4,.49,1.37,1.14,2.47,2.08,3.42.07.1.16.39.23.62.07.16.1.33.16.49.03.07.07.2.1.29.07.33.16.75.46,1.17.94,1.37,1.4,2.64,1.43,3.97,0,.55.26,1.01.42,1.33.03.07.1.16.13.23.16.36.33.68.49,1.01.29.62.59,1.2.68,1.72.29,1.59.39,3.29.52,4.91l.07.81c.2,2.67.75,5.4,3.38,7.32.16.59.29,1.2.46,1.79.16.68.33,1.4.52,2.08.07.26.13.55.2.88.23,1.01.46,2.12,1.14,3.03.03.03.03.07.07.1v.03l-.07.1c-.16.29-.23.62-.13.94.07.33.1.72.13,1.11.03.39.07.81.16,1.24.16.88.39,1.79.59,2.64.13.55.29,1.14.39,1.72-.62,1.04-.75,2.15-.85,3.12-.07.75-.13,1.46-.46,2.05-.85,1.72-.78,3.81-.72,5.66,0,.26.03.52.03.78.03,1.2.36,2.51,1.07,4.1.33.78.81,1.43,1.24,2.08.26.36.49.68.68,1.01,0,.07.03.23.03.33s0,.2.03.29c.03.2.03.42.03.65,0,.55.03,1.17.23,1.79.13.36.29.72.42,1.04.42.94.62,1.46.36,2.08-.16.39-.16.78.03,1.2.03.39.1.78.13,1.17l.03.36c-.07.62-.03,1.17,0,1.69v1.11c.03.2.07.39.1.55.03.1.03.23.03.23-.03.2-.03.39-.07.59-.1.88-.16,1.72-.39,2.51-.2.68-.42,1.63-.81,1.95-.78.72-.98,1.59-1.11,2.25-.1.42-.16.68-.29.85-.68.72-.62,1.69-.59,2.51,0,.2.03.39.03.55-1.76.75-2.64,2.47-2.9,3.91-.23,1.43-.91,2.41-2.08,3.74-.36.39-.55.81-.68,1.14-.2.42-.36.85-.52,1.27-.33.81-.62,1.56-1.01,2.25-.42.72-.91,1.4-1.43,2.12-.36.46-.68.94-1.04,1.46-.59.88-1.11,1.82-1.63,2.73-.2.33-.33.65-.46,1.01-.07.16-.13.36-.23.55-.16.36-.13.75.03,1.11-.1,1.5-.2,2.86-.36,4.23-.26,2.15-.62,3.29-1.95,3.97-.42.2-.62.52-.75.72l-.03.03c-.26.29-.52.59-.78.91-.59.68-1.14,1.33-1.72,1.86-1.59,1.4-3.16,3.06-3.87,5.5-.03.16-.29.42-.46.55-1.27.1-2.18.72-2.93,1.2-.29.2-.59.39-.85.52-.81.39-1.53.91-2.21,1.37-.55.39-1.11.75-1.66,1.07-.52.29-1.11.52-1.69.75-.72.29-1.5.62-2.21,1.04-.78.46-1.63.42-2.67.42-.49,0-.98-.03-1.5.03-.75.07-1.53,0-2.34-.07-.68-.07-1.37-.1-2.08-.1-1.11,0-2.18.07-3.25.1-1.4.07-2.86.13-4.26.1h-.1c-1.3-.03-2.12-.07-2.64-.78-.42-.52-1.04-.75-1.27-.81-.62-.16-1.24-.33-1.86-.49-1.14-.29-2.28-.59-3.38-.94-.85-.26-1.72-.68-2.64-1.24-.42-.26-.85-.59-1.27-.94-.65-.52-1.33-1.04-2.12-1.43-.2-.1-.36-.16-.55-.26-.85-.36-.85-.42-.85-.72-.03-.72-.59-1.11-.78-1.24-.26-.2-.52-.36-.78-.52-.55-.36-1.04-.72-1.5-1.11-.2-.16-.39-.46-.59-.72-.13-.2-.26-.36-.39-.52-.1-.13-.16-.23-.26-.36-.26-.39-.59-.85-1.07-1.2-.42-.29-.81-.52-1.24-.75-.88-.49-1.43-.81-1.72-1.4-.03-.07-.03-.1-.03-.16-.1-.33-.33-1.2-1.24-1.33-.39-.07-.72-.36-1.2-.85-.36-.36-.75-.75-1.24-1.07-.2-.13-.36-.26-.55-.39-.26-.2-.52-.39-.81-.55-.26-.16-.55-.29-.78-.42-.23-.1-.46-.23-.62-.33-.91-.59-1.82-1.24-2.7-1.86l-.36-.26c-.1-.07-.2-.16-.26-.26-.42-.49-.88-1.07-1.37-1.69-.46-.59-1.01-1.04-1.5-1.43-.49-.39-.94-.75-1.2-1.17-.46-.75-1.07-1.37-1.59-1.89-.46-.46-.98-.78-1.43-1.14-.75-.52-1.43-.98-1.72-1.69-.2-.46-.52-.72-.72-.85-.03,0-.03-.03-.07-.03-.23-.23-.46-.46-.68-.68-.39-.36-.81-.75-.94-1.07l-.13-.29c-.59-1.43-1.17-2.93-2.77-4.07-.46-.33-.94-1.07-1.17-1.82-.23-.72-.26-1.5-.33-2.38-.03-.39-.07-.78-.1-1.2-.1-.94-.2-1.89-.33-2.8l-.13-1.11c-.03-.39-.26-.72-.55-.94l-.1-.07c-.07-.07-.23-.16-.42-.23-.52-.23-1.46-1.82-1.37-2.41.1-.46.07-.91.07-1.37v-.13c.2-.26.29-.55.33-.88.03-.42-.07-.88-.33-1.3.13-.36.26-.81.1-1.33-.03-.16-.1-.33-.13-.46-.39-1.24-.33-1.33.07-1.63s.62-.78.62-1.33v-.72c.03-.75.03-1.53-.07-2.34-.1-.94-1.04-1.76-1.86-1.92-.85-.2-2.08.26-2.51,1.14-.26.55-.33,1.11-.39,1.63-.03.16-.03.33-.07.49-.07.33-.03.65,0,.88-.81.39-.81,1.43-.81,1.89v1.3c-.03,2.12-.03,4.26,0,6.41,0,.65.33,1.14.59,1.5.07.1.13.2.16.26.03.07.07.13.13.2l.1,1.53c.03.46.26.85.65,1.04.07.03.16.07.23.1,0,.03.03.07.03.07.29.49.59.91.65,1.3.16.88.23,1.79.26,2.77.03.46.03.91.07,1.4,0,.13,0,.26.03.42.03.94.1,2.41,1.56,3.32.16.1.36.2.49.23.29.49.55.94.85,1.46.36.65.72,1.3,1.14,1.95.52.85,1.07,1.63,1.63,2.41.23.36.49.68.72,1.04.03.07.1.13.13.2.1.13.2.26.23.36.49.88,1.14,2.08,2.67,2.47.03.03.07.07.1.1l.1.1c.75.72,1.53,1.5,2.28,2.28.29.29.55.62.81.88.1.13.23.26.33.36.03.03.07.07.1.1.2.16.39.36.59.49.42.36.78.65,1.11.98.1.1.2.23.33.39s.29.36.49.55.39.36.55.49.33.26.39.36c.91,1.2,2.02,1.92,3.06,2.44.62,1.53,2.47,2.67,3.78,2.93,1.33.26,1.37.39,1.43,1.17.03.39.26.75.62.98,2.77,1.69,4.95,3.94,7.23,6.31.55.59,1.14,1.17,1.72,1.72v.29c0,.52.33,1.01.81,1.2.23.1.49.1.72.07l2.18,1.3c.16.1.36.2.52.29.36.2.65.39.94.59.1.07.23.2.36.33.36.36.81.78,1.46.98,1.24.33,2.7.78,3.91,1.72.42.33,1.11.75,1.95.94,1.17.29,2.34.52,3.48.75.39.07.81.16,1.2.26,1.14.98,2.51.85,3.42.75.33-.03.62-.07.88-.03,1.46.1,2.93.03,4.33-.03.94-.03,1.92-.07,2.83-.07-.03,1.3.13,2.57.49,3.68.26.81.62,1.5.98,2.21.26.49.49.94.68,1.4.72,1.82,2.08,2.73,4.1,2.77h.49c1.07,0,2.18,0,3.03.33.68.26,1.33.29,1.92.33.88.07,1.24.1,1.53.42.52.59,1.24.49,1.46.46.26-.03.55-.07.81-.13.46-.07.91-.16,1.3-.16,4.07,0,8.43,0,12.79.1.78,0,1.59.1,2.41.16.91.1,1.86.16,2.83.16,1.11,0,1.89.46,2.6,1.5.33.49.98.72,1.53.49.52-.2,1.01-.03,1.82.29.59.23,1.24.49,1.95.55.39.03.75.03,1.14.07,1.2.03,1.99.07,2.6.62.23.2.52.33.85.33h1.07c.62.07,1.24.13,1.86.2,1.17.13,2.38.26,3.58.33h.13c.55,0,.98-.23,1.37-.42.16-.07.29-.16.46-.23.49-.23.81-.72.78-1.24-.1-.78-.46-1.24-.94-1.43Zm-25.61-41.24c-.1-.1-.16-.16-.23-.26.07.1.16.2.23.26Z"/><path class="cls-1" d="m132.88,101.38c-.1-.36-.23-.75-.42-1.07-.68-1.14-1.56-2.18-1.37-3.68.07-.55-.03-1.17-.16-1.72-.16-.75-.36-1.53-.65-2.25-.39-1.07-.59-2.44-1.37-3.12-.65-.59-2.02-.65-3.03-.55-1.04.1-1.86.81-2.02,2.02-.07.55,1.3,5.31,1.43,7.36.03.26.33.52.49.75.23,1.14.55,2.28.72,3.45.13.91,1.89,5.89,2.15,6.83.78,2.96,1.33,5.99,2.05,8.98.2.78-.03,1.66.91,2.34.59.39.68,1.5.88,2.34.07.23-.39.78-.62.78-1.11.03-2.25-.03-3.35-.13-2.9-.2-5.79-.52-8.69-.62-4.23-.13-8.46-.13-12.69-.2-2.02-.03-2.54.07-3.03,2.34-.33,1.56.75,3.68,2.18,3.91.88.13,1.79,0,2.7.07,3.65.2,7.32-.46,10.9.52.72.2,1.27.07,1.89-.03.2-.03.55-.03.75,0,.88.13,1.76.39,2.64.42,1.56.1,3.12.03,4.72.1.68.03,1.43.46,2.02.29,1.59-.39,3.16-.42,4.85-.2.78.1,1.5-.42,1.66-1.17.16-.85.36-1.72.49-2.6.07-.46.07-.94.03-1.43-.1-.85-.26-1.69-.46-2.51-.2-.72-.46-1.4-.68-2.12-.16-.62-.29-1.27-.46-1.92-.16-.68-.33-1.33-.46-2.02-.13-.65.03-1.53-.36-1.86-1.04-.98-.91-2.31-1.33-3.48-.29-.78-.29-1.66-.49-2.47-.13-.59-.39-1.14-.52-1.72-.13-.52-.23-1.07-.33-1.63l-.98-4Z"/><path class="cls-1" d="m99.72,140.47c-.52.94-1.07,2.05-.49,3.38.42.98,1.99,2.28,3.03,1.86.03.2,1.43.16,2.05.16,1.56,0,3.16.1,4.72.16,1.92.1,3.84.26,5.79.26,1.59.03,3.19-.16,4.78-.16,1.89,0,3.78.13,5.7.16,3.12.07,6.25.13,9.37.07,1.63-.03,3.29.68,4.85-.29.23-.13.59-.16.72-.33.72-1.07.65-2.31.33-3.45-.29-1.04-1.3-1.27-2.28-1.33-2.77-.16-5.53-.33-8.3-.42-1.63-.07-3.25-.03-4.88-.1-2.15-.1-4.3-.33-6.44-.42-1.99-.1-3.97-.03-5.96-.16-2.05-.13-4.07-.46-6.12-.59-1.53-.1-3.09-.16-4.62.03-.81.1-1.89.55-2.25,1.17Z"/><path class="cls-1" d="m139.39,91.16c.07.26.29.49.55.55.16.03.29.07.46.1.07,0,.13.03.2.03.81,1.07,1.86,1.3,2.83,1.3.33,0,.65-.03.94-.03.13,0,.26-.03.39-.03,2.86-.16,5.63-2.83,5.96-5.7.16-1.53-.26-2.64-.75-3.65-1.4-2.77-3.06-3.91-5.86-3.87-2.86.03-4.52,1.99-5.5,3.45-.07.07-.16.2-.29.29-.2.16-.42.36-.62.65-1.33,2.15-.07,4.1.36,4.75.07.1.1.16.13.26.1.2.23.42.39.65.26.29.52.59.81.85-.03.1-.03.23,0,.39Z"/><path class="cls-1" d="m98.48,82.34c-.75-1.37-1.92-2.93-4.2-2.8-.46.03-.94,0-1.43,0-.36,0-.72-.03-1.07-.03-2.02.03-4.23,2.08-4.46,4.17-.03.39-.16.81-.33,1.3-.1.26-.16.55-.26.85-.07.2-.03.36.03.55.07.13.13.26.2.39.13.23.29.52.29.75.1,1.17.42,2.05,1.14,2.9,1.14,1.33,2.83,2.15,4.52,2.15h.07c2.9-.03,5.17-1.63,6.18-4.39.13-.29.2-.62.29-.91.07-.2.1-.39.16-.59.52-1.56-.23-2.77-.81-3.74-.1-.2-.23-.39-.33-.59Z"/><path class="cls-1" d="m60.6,165.63c-.07-.29-.29-.49-.55-.59-1.89-.55-3.58-.16-4.98,1.24-.52.49-.91.68-1.5.65-.46-.03-.88.23-1.14.49-.91.91-1.79,1.86-2.64,2.77-.07.1-.16.16-.26.26-.29.29-.68.62-.85,1.14-.1.36-.33.72-.59,1.07-.42.62-.91,1.37-.91,2.38t-.07.07c-.26.26-.49.55-.75.85-.62.68-1.2,1.37-1.82,1.95-.2.16-.65.26-1.04.33-.1.03-.2.03-.26.07-.36.07-.75.1-1.14.13-.2,0-.42.03-.62.07-.23.03-.46.16-.59.36-.13.2-.16.46-.1.68l.55,1.92c.1.36.46.62.85.59.1,0,.2-.03.29-.03.07,0,.16-.03.2-.03l.29.07c.46.1.94.2,1.46.2.78,0,1.59-.23,2.28-1.07h0c.13,0,.33-.03.49-.1l.1-.03c.33-.1.81-.26,1.01-.75.42-1.01,1.14-1.86,1.86-2.77.98-1.17,1.95-2.38,2.41-4,.1-.39.42-.81.78-1.24.26-.33.52-.65.75-1.04.26-.46.42-.52.75-.52h.03c.49,0,.88-.29,1.14-.52.1-.07.16-.13.23-.16s.1-.07.16-.1c.03-.03.1-.07.13-.07.98-.23,1.92-.46,2.96-.72l1.04-.26c.2-.07.39-.2.52-.36.1-.2.16-.42.1-.62l-.59-2.28Z"/><path class="cls-1" d="m61.77,140.41c-.03-.78-.07-1.59-.16-2.38h0c-.1-.78-.36-1.59-.72-2.44-.2-.49-.49-.88-.75-1.27-.1-.16-.2-.29-.29-.46-.2-.33-.62-.46-.98-.33l-.49.2c-.33.13-.52.42-.52.75,0,.2,0,.39-.03.59-.03.49-.03,1.01.07,1.53.1.46.23.88.39,1.27.16.49.33.94.36,1.37.03,1.46-.03,2.96-.1,4.39-.03.72-.07,1.46-.07,2.18,0,.26.07.46.1.62,0,.03.03.07.03.1-.13.59-.29,1.2-.42,1.79-.1.42-.23.85-.33,1.27-.07.29-.1.36-.26.55l-.13.13c-.65.65-1.86,1.82-1.07,3.48.13.29.39.46.72.49h.68c1.27,0,1.63-.26,2.31-1.66.29-.59.46-1.17.65-1.72.07-.23.13-.46.23-.68.03-.07.07-.16.1-.23.1-.29.26-.62.23-1.01,0-.33-.13-.62-.23-.81,0-.03-.03-.07-.03-.07.1-.52.23-1.01.36-1.53.1-.39.2-.75.29-1.14.13-.59.2-1.07.2-1.53,0-.91-.03-1.79-.07-2.77-.03-.23-.07-.46-.07-.68Z"/><path class="cls-1" d="m109.65,178.88c-.1-.23-.26-.49-.49-.68-.59-.49-1.17-.98-1.76-1.43-.46-.36-.91-.75-1.37-1.11l-.52.62.52-.62s-.03-.03-.03-.07c-.2-.78-.39-1.56-.55-2.31l-.2-.78c-.07-.29-.29-.52-.55-.59l-1.66-.49c-.23-.07-.49-.03-.68.13-.2.13-.33.36-.36.62-.13,1.89.42,3.48,1.43,4.3l-.1.42c-.07.33.03.65.33.85.42.29.65.68.94,1.11l.03.07s.03.07.07.1c.13.23.33.59.75.75,1.07.39,1.89.65,2.67.85.1.03.16.03.26.03.36,0,.65-.16.88-.29.07-.03.1-.07.16-.1.23-.1.39-.29.46-.49.07-.23.03-.46-.1-.68-.07-.07-.1-.13-.13-.2Z"/></svg>